<svg width="128" height="128" viewBox="0 0 128 128" fill="none" xmlns="http://www.w3.org/2000/svg">
<path d="M40.71 107.26C40.8022 106.967 41.006 106.722 41.2773 106.578C41.5486 106.434 41.8656 106.402 42.16 106.49C45.18 107.43 39.73 110.42 40.71 107.26Z" stroke="#231F20" stroke-miterlimit="10"/>
<path d="M34.1502 113.79C34.1947 113.646 34.2672 113.511 34.3637 113.395C34.4602 113.278 34.5787 113.182 34.7125 113.111C34.8463 113.041 34.9926 112.997 35.1432 112.983C35.2938 112.969 35.4457 112.985 35.5902 113.03C38.6102 114 33.1702 117 34.1502 113.79Z" stroke="#231F20" stroke-miterlimit="10"/>
<path d="M21.3401 116C21.3846 115.856 21.4572 115.721 21.5537 115.605C21.6502 115.488 21.7687 115.392 21.9024 115.321C22.0362 115.251 22.1826 115.207 22.3332 115.193C22.4838 115.179 22.6357 115.195 22.7801 115.24C25.8001 116.19 20.3601 119.19 21.3401 116Z" stroke="#231F20" stroke-miterlimit="10"/>
<path d="M12.2801 48.0001C16.7401 46.3101 21.2101 44.8401 25.6801 43.3701L39.1101 39.0001C42.3701 38.0001 45.6201 36.8501 48.8901 35.8401C60.4301 32.2901 72.0001 28.7001 83.3901 24.8201C88.4701 23.1001 93.5301 21.2801 98.4901 19.3801C101.68 18.1601 104.84 16.8601 107.97 15.5201C111.095 14.1997 114.149 12.7177 117.12 11.0801C118.85 9.96012 118.81 10.2701 117.51 11.5901C115.199 13.6161 112.579 15.2602 109.75 16.4601C103.35 19.3801 96.8201 21.8701 90.2501 24.2901C83.6801 26.7101 77.0001 29.0001 70.3301 31.1201C62.3301 33.7201 54.0501 36.5901 45.8801 39.2901C36.8801 42.2901 27.8801 45.0901 18.9401 48.2001L14.8401 49.6701L12.8401 50.4501L11.9101 50.8301C11.7401 50.9001 11.5801 50.9601 11.4201 51.0401L10.9301 51.2601C10.8401 51.4301 11.0401 51.5801 11.1401 51.7101C11.2628 51.841 11.393 51.9645 11.5301 52.0801L11.7501 52.2601L12.1501 52.5801C13.2701 53.4401 14.4601 54.2401 15.6701 55.0101C17.5101 56.1801 19.4201 57.2101 21.3701 58.2301L27.1901 61.4201L38.8001 67.7301L39.3801 68.0301L40.1601 68.4701C40.2201 68.4701 40.3201 68.5301 40.3301 68.6101L40.3901 68.8201L40.5201 69.2601C40.5597 69.4047 40.5897 69.5516 40.6101 69.7001L40.6801 70.0401L41.1401 72.5501L42.0301 77.5501C42.6301 80.8501 43.2301 84.1401 43.8201 87.4501L44.6301 91.7901C45.5601 97.2301 45.7701 98.9401 45.6301 100.19C45.6287 100.474 45.6086 100.758 45.5701 101.04C45.4901 101.35 45.2101 101.04 44.7401 100.04C44.1243 98.5998 43.6162 97.1157 43.2201 95.6001C42.4001 92.6801 41.7401 89.6801 41.1201 86.6601C40.5001 83.6401 39.9201 80.5701 39.3901 77.4801L38.5901 72.8401L38.1801 70.5401L38.1201 70.2401L37.7401 70.0401L29.3701 65.5401L16.8501 58.7201C14.7201 57.5193 12.6693 56.1832 10.7101 54.7201L10.3301 54.4301L9.82009 54.0001C9.38202 53.648 8.97087 53.2636 8.5901 52.8501C8.26302 52.4998 8.01418 52.0839 7.8601 51.6301C7.79666 51.4263 7.76628 51.2136 7.7701 51.0001C7.7701 50.8001 7.77009 50.5201 7.95009 50.4001L8.95009 49.5401L9.45009 49.1101C9.6909 48.969 9.94155 48.8453 10.2001 48.7401L11.4001 48.2501L12.2401 47.9101L12.2801 48.0001Z" fill="#221F1F"/>
<path d="M68.3202 84.5503C69.8502 85.3803 71.3202 86.2503 72.8602 87.1203C73.4102 87.4403 73.9902 87.7003 74.5102 88.0503L80.0902 91.7603C80.9102 92.3003 81.7602 92.7603 82.6002 93.3003C83.7162 93.8568 84.7718 94.527 85.7502 95.3003C86.0402 95.5903 85.8802 95.7603 85.4302 95.8603C84.8222 96.0284 84.1734 95.9642 83.6102 95.6803C81.3502 94.5403 79.1102 93.3503 77.0002 92.0003C75.6602 91.194 74.2782 90.4597 72.8602 89.8003C71.3402 88.9803 69.8602 88.1403 68.3102 87.3503C67.3702 86.8703 66.4302 86.3503 65.4702 85.9403C64.0154 85.2154 62.5233 84.5678 61.0002 84.0003C59.8402 83.5503 58.6302 83.3703 57.4702 83.0003C57.2096 82.9456 56.9525 82.8755 56.7002 82.7903C55.7802 82.4103 55.5502 82.0603 55.4702 81.5503C55.4444 81.4351 55.4277 81.3181 55.4202 81.2003C55.4202 80.8503 55.9002 80.6503 56.7102 80.5903C59.0735 80.6687 61.3952 81.2338 63.5302 82.2503C65.1702 82.9103 66.7602 83.7103 68.3202 84.5103V84.5503Z" fill="#221F1F"/>
<path d="M66 49.1402L77.14 41.6302L81.14 38.8502L95.5 29.2602C97.62 27.8402 99.73 26.3702 101.8 24.9102C104.47 23.0402 107.1 21.1002 109.92 19.4602C110.078 19.3628 110.245 19.2824 110.42 19.2202C110.42 19.2802 110.31 18.9902 110.78 19.7202C110.767 19.7257 110.754 19.7286 110.74 19.7286C110.726 19.7286 110.713 19.7257 110.7 19.7202C110.69 19.6877 110.69 19.6528 110.7 19.6202C110.7 19.6902 110.56 19.5402 110.62 19.5102V19.6002C110.533 19.7628 110.436 19.9198 110.33 20.0702C109.471 21.2647 108.42 22.3088 107.22 23.1602C101.81 27.0002 96.34 30.7402 90.73 34.4202C87.37 36.6002 84 39.0002 80.61 41.3602L69.43 49.0002L62.56 53.7002C59.1 56.0902 55.56 58.4602 52.22 60.8802C49.58 62.7602 47.06 64.7102 44.48 66.6202L42.8 67.8702C40.66 69.4202 39.91 69.8002 39.15 69.7202C38.9814 69.7225 38.8133 69.7023 38.65 69.6602C38.22 69.5002 38.91 68.6602 40.41 67.3902C44.87 63.7602 49.8 60.2602 54.78 56.7902L65.94 49.1102L66 49.1402Z" fill="#221F1F"/>
<path d="M73.8802 53.7802L82.6202 46.4102L85.7602 43.6702L97.0002 34.1702C98.6502 32.7602 100.26 31.2802 101.85 29.8302C103.85 27.9402 105.85 25.9802 108.05 24.2902C108.76 23.7802 108.85 24.0402 108.56 24.8002C108.09 25.9837 107.374 27.0539 106.46 27.9402C102.4 31.9402 98.1602 35.6702 93.7602 39.3202C91.1202 41.4902 88.5102 43.9102 85.8702 46.1902L77.1102 53.7002L71.7302 58.3102C69.0002 60.6502 66.2902 63.0002 63.6602 65.3702C61.6602 67.2302 59.7102 69.1502 57.7502 71.0502L56.4802 72.3102C54.8602 73.8502 54.2702 74.2502 53.5302 74.1802C53.3619 74.1769 53.1944 74.1568 53.0302 74.1202C52.5702 73.9702 53.0302 73.1202 54.0902 71.8302C57.5528 68.11 61.2254 64.5909 65.0901 61.2902C67.9701 58.7602 70.9102 56.2902 73.8302 53.7502L73.8802 53.7802Z" fill="#221F1F"/>
<path d="M96.44 70.4001C95.36 74.0701 94.32 77.7601 93.44 81.4701C92.97 83.3301 92.52 85.1801 92.15 87.0501L91.85 88.4401L91.62 89.8401L91.38 91.2301C91.315 91.5835 91.2749 91.941 91.26 92.3001L91.15 93.5701L91.09 93.6801L90.55 94.6801L90.48 94.8101V94.8701C90.37 94.6501 90.72 95.3701 90.24 94.3801H90.06L89.62 94.5101C89.31 94.8201 88.73 94.3401 88.23 94.0001L86.89 93.1001L83.38 90.7701C79.15 88.1201 75 85.4701 70.68 83.0001C66.4362 80.4998 61.9787 78.3815 57.36 76.6701C56.85 76.5001 56.36 76.3301 55.82 76.1801L55 76.0001L54.53 75.8801C54.41 75.8801 54.24 75.7801 54.17 75.8801L54.08 76.2701L53.76 77.6501C53.2534 79.7634 52.7267 81.8801 52.18 84.0001C51.46 86.7201 50.72 89.4501 49.88 92.1601C49.0785 94.9094 48.0447 97.5857 46.79 100.16C45.85 101.77 45.65 101.25 45.94 99.7801C46.3574 97.3391 46.9184 94.9249 47.62 92.5501C49.28 87.1101 50.76 81.5501 52.09 76.0201L52.57 74.0201L52.69 73.5101C52.69 73.3901 52.81 73.5101 52.88 73.5101L53.14 73.5701L54.14 73.7801L55.14 74.0101L55.78 74.1801L56.85 74.4901C58.28 74.9301 59.66 75.4901 61.02 76.0101C63.7451 77.1165 66.409 78.3683 69 79.7601C75.12 83.1301 81.34 86.8301 87.23 90.7601L88.33 91.5101L88.7 91.7701C88.8187 91.8649 88.9459 91.9486 89.08 92.0201V91.5601V91.1801L89.26 90.0801C89.39 89.3201 89.5 88.5701 89.65 87.8201C89.97 86.3401 90.25 84.8201 90.65 83.3801L91.73 79.0001L92.89 74.6201C94.2 70.0001 95.57 65.4201 97 60.8501C99.23 53.9201 101.68 47.0401 104.29 40.3001C106.29 35.0801 108.29 29.9201 110.74 24.9101C111.26 23.8001 111.74 22.7101 112.4 21.6401L113.82 19.1101C114.185 18.5432 114.578 17.9958 115 17.4701C115.421 16.861 115.938 16.324 116.53 15.8801C116.715 15.7366 116.913 15.6095 117.12 15.5001C117.62 15.3201 116.82 17.0201 115.25 19.9101L113.63 23.2301C113.07 24.3401 112.63 25.5201 112.1 26.6601C111.03 28.9301 110.1 31.3101 109.1 33.6601C107.21 38.4301 105.35 43.2901 103.65 48.2201C102.35 51.8701 101.14 55.5601 99.95 59.2201C98.76 62.8801 97.59 66.6301 96.5 70.3601L96.44 70.4001Z" fill="#221F1F"/>
<path d="M55.77 92.08C55.05 92.87 54.32 93.66 53.58 94.43C53.31 94.71 53.07 95.02 52.8 95.29C51.8 96.29 50.8 97.2 49.8 98.13L48.48 99.41C47.9308 99.9724 47.3125 100.463 46.64 100.87C46.21 101.12 46.13 99.99 46.64 99.36C47.6964 98.2065 48.8182 97.1147 50 96.09C50.6854 95.4334 51.3299 94.7354 51.93 94L54.05 91.62C54.48 91.13 54.92 90.62 55.34 90.14C55.97 89.38 56.62 88.62 57.2 87.82C57.66 87.21 58.01 86.53 58.44 85.91C58.53 85.78 58.61 85.63 58.71 85.5C59.08 85 59.28 84.9 59.66 85.01C59.7484 85.0308 59.8352 85.0575 59.92 85.09C60.18 85.2 60.23 85.55 60.05 85.99C59.5014 87.3129 58.7637 88.5491 57.86 89.66C57.2 90.51 56.5 91.32 55.8 92.14L55.77 92.08Z" fill="#221F1F"/>
<path d="M19.69 62.3801C20.96 63.2101 22.28 63.9801 23.61 64.7201C24.1 64.9901 24.61 65.1801 25.12 65.4501C26.8534 66.3968 28.6067 67.3134 30.38 68.2001C31.17 68.6001 31.9801 68.9001 32.8301 69.2001C33.4177 69.4228 33.9701 69.7293 34.4701 70.1101C34.9971 70.5163 35.4076 71.0544 35.66 71.6701C35.8 72.0601 35.4001 72.1901 34.8801 72.2001C34.3409 72.2344 33.7999 72.1769 33.28 72.0301C32.8619 71.8625 32.4345 71.719 32 71.6001L30.43 71.0001C29.3512 70.5531 28.311 70.0179 27.32 69.4001C26.1101 68.6501 24.73 68.1701 23.46 67.5101C22.19 66.8501 20.67 66.0001 19.31 65.1901C18.47 64.6901 17.64 64.1901 16.82 63.6601C15.56 62.8801 14.36 61.9901 13.16 61.1301C12.71 60.7801 12.21 60.4901 11.74 60.1301C11.2725 59.7789 10.8252 59.4016 10.4 59.0001C10.22 58.8201 10.02 58.6501 9.84005 58.4601C9.21005 57.6901 9.18005 57.3001 9.50005 56.8401C9.57104 56.7327 9.64782 56.6292 9.73005 56.5301C10.03 56.2401 10.54 56.3301 11.04 56.6901C11.8 57.2301 12.63 57.6901 13.46 58.2201C14.29 58.7501 15.07 59.3101 15.91 59.8501C17.15 60.6701 18.4 61.5301 19.72 62.2901L19.69 62.3801Z" fill="#221F1F"/>
<path d="M47.4102 63.3C51.2902 60.46 55.2302 57.76 59.1702 55.06L63.4502 52.06L78.7502 41.84C81.0002 40.32 83.2302 38.74 85.4202 37.16C88.2302 35.16 90.9802 33.01 93.9302 31.16C94.8702 30.6 94.9302 30.91 94.4202 31.77C93.5994 33.1216 92.5266 34.303 91.2602 35.25C85.6202 39.56 79.7902 43.59 73.8102 47.5C70.2302 49.87 66.6302 52.48 63.0002 55C59.0502 57.73 55.1002 60.45 51.2202 63.25C48.8402 64.98 46.4402 66.73 44.2202 68.62C43.8102 68.98 43.4102 69.35 43.0502 69.73C42.6902 70.11 42.4402 70.33 42.5002 70.67C42.5002 71.67 42.6202 72.84 42.7202 73.94C42.9502 76.15 43.2502 78.36 43.5702 80.55C44.0802 83.97 44.7602 87.29 45.2702 90.68C45.3902 91.43 45.5202 92.16 45.6102 92.92C45.9502 95.74 45.8202 96.7 45.2302 97.32C45.1123 97.4709 44.9782 97.6085 44.8302 97.73C44.3502 97.98 43.9902 96.9 43.6602 94.9C42.6602 88.9 41.4802 82.62 40.6602 76.16C40.5202 74.95 40.3802 73.75 40.2902 72.51L40.2202 71.57V70.49C40.2429 69.8986 40.4491 69.3289 40.8102 68.86C41.0413 68.5606 41.2919 68.2766 41.5602 68.01C43.3766 66.3184 45.2971 64.742 47.3102 63.29L47.4102 63.3Z" fill="#221F1F"/>
</svg>
