<svg width="558" height="503" viewBox="0 0 558 503" fill="none" xmlns="http://www.w3.org/2000/svg">
<path d="M357.27 486.179L402.075 386.614C403.69 383.025 407.259 380.717 411.194 380.717H482.962C490.299 380.717 495.138 388.357 492.002 394.991L444.935 494.556C443.282 498.053 439.762 500.283 435.894 500.283H366.39C359.133 500.283 354.293 492.796 357.27 486.179Z" stroke="black" stroke-width="5"/>
<path d="M297.488 360.635L342.292 261.07C343.907 257.482 347.476 255.174 351.411 255.174H423.179C430.517 255.174 435.356 262.814 432.22 269.448L385.152 369.013C383.5 372.509 379.979 374.739 376.112 374.739H306.607C299.35 374.739 294.51 367.253 297.488 360.635Z" stroke="black" stroke-width="5"/>
<path d="M550.369 486.418L499.865 383.592C498.184 380.169 494.703 378 490.89 378H424.017C416.755 378 411.915 385.495 414.902 392.114L461.31 494.94C462.928 498.523 466.494 500.826 470.425 500.826H541.393C548.796 500.826 553.632 493.062 550.369 486.418Z" fill="black"/>
<path d="M490.586 360.874L440.083 258.048C438.402 254.625 434.921 252.457 431.107 252.457H364.235C356.973 252.457 352.133 259.952 355.12 266.57L401.528 369.396C403.145 372.979 406.712 375.283 410.643 375.283H481.61C489.013 375.283 493.85 367.519 490.586 360.874Z" fill="black"/>
<path d="M132.814 485.635L177.618 386.07C179.233 382.482 182.802 380.174 186.737 380.174H258.505C265.843 380.174 270.682 387.814 267.546 394.448L220.479 494.013C218.826 497.509 215.305 499.739 211.438 499.739H141.933C134.677 499.739 129.836 492.253 132.814 485.635Z" stroke="black" stroke-width="5"/>
<path d="M227.278 496.551L187.594 392.095C185.108 385.551 189.941 378.543 196.942 378.543H262.623C266.44 378.543 269.923 380.715 271.603 384.142L280.369 402.024C281.684 404.707 281.73 407.837 280.496 410.558L255.815 464.956L246.611 486.166C244.699 490.572 246.189 495.715 250.161 498.416L256.902 503H236.626C232.473 503 228.753 500.433 227.278 496.551Z" fill="black"/>
<path d="M245.857 486.179L290.662 386.614C292.277 383.025 295.846 380.717 299.781 380.717H371.548C378.886 380.717 383.725 388.357 380.589 394.991L333.522 494.556C331.869 498.053 328.349 500.283 324.481 500.283H254.977C247.72 500.283 242.88 492.796 245.857 486.179Z" stroke="black" stroke-width="5"/>
<path d="M186.075 360.635L230.879 261.07C232.494 257.482 236.063 255.174 239.998 255.174H311.766C319.104 255.174 323.943 262.814 320.807 269.448L273.739 369.013C272.087 372.509 268.566 374.739 264.699 374.739H195.194C187.937 374.739 183.097 367.253 186.075 360.635Z" stroke="black" stroke-width="5"/>
<path d="M340.321 496.551L300.637 392.095C298.151 385.551 302.985 378.543 309.985 378.543H375.667C379.483 378.543 382.966 380.715 384.646 384.142L393.412 402.024C394.727 404.707 394.774 407.837 393.539 410.558L368.858 464.956L359.654 486.166C357.742 490.572 359.233 495.715 363.205 498.416L369.945 503H349.67C345.517 503 341.796 500.433 340.321 496.551Z" fill="black"/>
<path d="M280.539 371.008L240.855 266.551C238.369 260.007 243.203 253 250.203 253H315.885C319.701 253 323.184 255.172 324.864 258.598L333.63 276.481C334.945 279.163 334.991 282.293 333.757 285.014L309.076 339.413L299.872 360.623C297.96 365.029 299.45 370.172 303.422 372.873L310.163 377.457H289.887C285.735 377.457 282.014 374.89 280.539 371.008Z" fill="black"/>
<path d="M171.032 376.37H505.271" stroke="black" stroke-width="5" stroke-linecap="round"/>
<path d="M285.469 187.787L164.684 115.24C161.099 113.086 161.585 107.744 165.5 106.273L206.609 90.8248C208.066 90.2775 209.694 90.4394 211.014 91.2628L333.999 167.97C337.723 170.292 336.861 175.943 332.614 177.05L289.305 188.339C288.004 188.678 286.622 188.48 285.469 187.787Z" stroke="black" stroke-width="5" stroke-linecap="round"/>
<path d="M200.38 19.4932L257.667 8.61312C258.289 8.49516 258.927 8.48958 259.542 8.63705C264.012 9.70939 270.497 12.715 266.548 17.7918C262.313 23.2361 257.137 26.8656 255.079 27.9998" stroke="black" stroke-width="5" stroke-linecap="round"/>
<path d="M226.467 35.399C241.242 31.9221 272.182 27.402 277.744 37.1375C283.306 46.873 280.062 53.9428 277.744 56.2607" stroke="black" stroke-width="5" stroke-linecap="round"/>
<path d="M229.728 37.3206C242.157 35.5731 268.055 36.4468 272.217 53.9212C277.42 75.7641 272.217 84.5011 263.546 88.8697" stroke="black" stroke-width="5" stroke-linecap="round"/>
<path d="M2.5542 88.1305C10.4102 98.6621 31.5343 121.305 53.1821 127.624C79.2715 135.24 167.84 175.488 189.805 139.036C191.207 136.709 189.975 133.797 187.474 132.735L153.793 118.438C153.069 118.13 152.428 117.656 151.922 117.055L127.203 87.683C125.387 85.5258 125.714 82.295 127.924 80.5442L151.092 62.1917C152.117 61.379 153.421 61.001 154.723 61.1388L215.518 67.5731C217.624 67.796 219.349 69.3195 219.926 71.357C224.268 86.6707 235.357 111.008 252.624 112.712C254.927 112.939 256.791 111.095 257.035 108.794C258.983 90.41 259.077 58.0008 246.092 49.5146C232.423 40.5819 190.887 15.79 170.574 3.76761C169.72 3.2616 168.747 3.03056 167.756 3.08777L62.7839 9.14344" stroke="black" stroke-width="5" stroke-linecap="round"/>
</svg>
